<svg xmlns="http://www.w3.org/2000/svg" viewBox="-169 292.9 256 256" xmlns:v="https://vecta.io/nano"><path d="M-147.9 484.7l105.1 60.7c1.1.6 2.5.6 3.6 0l105.1-60.7c1.1-.6 1.8-1.8 1.8-3.1V360.2c0-1.3-.7-2.5-1.8-3.1l-105.1-60.7c-1.1-.6-2.5-.6-3.6 0l-105.1 60.7c-1.1.6-1.8 1.8-1.8 3.1v121.4c0 1.3.7 2.5 1.8 3.1z" fill="#f3b589"/><path d="M6.6 497.9c-3.3-.9-8.5-1.5-15.3-1.8-3.4-.2-6.4-2.2-7.8-5.2-1.8-3.9-3.4-8.2-3.4-12.6 0-19.3 29.5-34.9-20-35.4h0-1.1-1.1 0c-49.5.5-20 16.1-20 35.4 0 4.4-1.6 8.7-3.4 12.6a8.8 8.8 0 0 1-7.8 5.2c-6.8.3-12 .8-15.3 1.8-7.8 2.2-13.1 6.4-16.7 11.3l62.6 36.1c1.1.6 2.5.6 3.6 0l62.6-36.1c-3.8-4.8-9-9.1-16.9-11.3z" fill="#e5c6aa"/><g opacity=".1"><path d="M-19.6 475.9c.6-4.6 2.6-9 4.6-13-8.2 7.9-17.4 12.6-25.9 12.6s-17.8-4.9-26-12.9c2 4 4.1 8.5 4.7 13.2 7 5.5 14.4 12.8 21.3 12.8s14.3-7.3 21.3-12.7z"/></g><path d="M6.8 409.7c0 35.9-26.5 67.9-47.8 67.6-21.2-.3-47.5-33.1-47.8-68.1-.4-35.9 17.1-57.7 47.8-57.7s47.8 22.3 47.8 58.2z" fill="#efd2b6"/><path d="M.6 495.9l-33.9 37c-4.1 4.4-11.1 4.4-15.3 0l-33.9-37c-.1-.1-.2-.1-.4-.1l-36.7 5.2 76.9 44.4c1.1.6 2.5.6 3.6 0L37.8 501l-36.7-5.2c-.3 0-.4 0-.5.1z" fill="#2c2215"/><path d="M-36 343.5l-5-.1-5 .1c-36.8 2.6-53.5 50.2-50.2 67.9 2.2 11.9 13 44.4 16.1 53.7.5 1.5.4 1.8.4-.1 0-22.7-2.3-52.1.5-56.5 4.1-6.4 1.1-16.5.2-19.3-.1-.3.1-.7.5-.7 15 .7 27 6.7 36.5 7.4v.2c.3 0 .7-.1 1.1-.1h.1c.4 0 .7.1 1.1.1v-.2c9.5-.7 21.5-6.7 36.5-7.4.3 0 .6.3.5.7-.9 2.7-3.8 12.9.2 19.3 2.8 4.3.6 33.7.6 56.5 0 1.9-.1 1.6.4.1 3.1-9.3 13.7-41.7 15.9-53.7C17.5 393.6.8 346-36 343.5z" fill="#3f3932"/></svg>